<svg viewBox="0 0 44 44" xmlns="http://www.w3.org/2000/svg" fill="none">
  <!-- Fond -->
  <rect width="44" height="44" rx="10" fill="#0B0D17"/>
  <!-- Couronne -->
  <path d="M 9 30 L 9 20 L 15 10 L 22 20 L 29 8 L 35 20 L 35 30 Z"
        fill="#FFD700" stroke="#111" stroke-width="1.6" stroke-linejoin="round"/>
  <rect x="9" y="28" width="26" height="7" rx="2.5"
        fill="#FFD700" stroke="#111" stroke-width="1.4"/>
  <!-- Gemme -->
  <circle cx="22" cy="32" r="2.5" fill="#FF3366"/>
  <!-- Pince gauche -->
  <path d="M 5 24 Q 1 27 2 32 Q 3 35 7 34 Q 5 30 7 26 Z"
        fill="#E84040" stroke="#111" stroke-width="1.4" stroke-linejoin="round"/>
  <path d="M 5 24 Q 1 21 3 17 Q 5 14 9 16 Q 6 20 7 24 Z"
        fill="#E84040" stroke="#111" stroke-width="1.4" stroke-linejoin="round"/>
  <!-- Pince droite -->
  <path d="M 39 24 Q 43 27 42 32 Q 41 35 37 34 Q 39 30 37 26 Z"
        fill="#E84040" stroke="#111" stroke-width="1.4" stroke-linejoin="round"/>
  <path d="M 39 24 Q 43 21 41 17 Q 39 14 35 16 Q 38 20 37 24 Z"
        fill="#E84040" stroke="#111" stroke-width="1.4" stroke-linejoin="round"/>
</svg>
